<?xml version="1.0" encoding="UTF-8"?><svg id="Layer_2" xmlns="http://www.w3.org/2000/svg" viewBox="0 0 431.48 613.06"><defs><style>.cls-1{fill:#4D4D4D;}</style></defs><g id="a"><path class="cls-1" d="M416.99,.01h-.09c-7.99,0-14.5,6.45-14.54,14.46l-.29,50.32c-.01,2.51-1.36,4.86-3.52,6.15L7.1,304.12c-6.9,4.11-9.16,13.04-5.05,19.94,2.72,4.57,7.55,7.1,12.51,7.1,2.53,0,5.1-.66,7.43-2.05l29.43-17.53,23.78,113.74c-12.73,7.9-21.23,13.18-22.73,14.11-32.4,18.81-48.48,45.07-44.12,72.06,3.71,22.97,25.11,88.74,26.02,91.53,1.95,5.99,7.53,10.04,13.83,10.04h254.06c3.86,0,7.56-1.53,10.28-4.26,2.23-2.23,10.26-35.93,24.07-101.09,7.78-36.71,16.07-75.83,21.38-100.39,3.11-14.41-1.37-35.14-10.57-53.18,30.2-30.96,34.77-77.84,34.96-80.01,.02-.24,.04-.49,.05-.73l6.16-162.67,24.88-14.82c10.86-6.47,17.65-18.34,17.72-30.97l.29-50.31c.05-8.03-6.43-14.58-14.46-14.63h-.03Zm-87.46,401.19c-5.31,24.58-13.61,63.74-21.4,100.49-6.88,32.44-13.93,65.69-17.52,82.29H58.78c-7.23-22.76-19.35-62.42-21.73-77.12-3.31-20.5,19.88-36.39,30.38-42.49,1.97-1.22,196.74-122.12,213-131.97,8.45-5.12,13.13-3.7,27.79,15.62,1.78,2.35,3.5,4.6,5.16,6.63,11.68,14.27,18.28,36.74,16.16,46.53v.02Zm23.81-129.34c-.38,3.42-4.39,35.22-22.76,57.56-10.89-14.32-32.69-41.6-65.25-21.89-11.29,6.84-104.5,64.65-163.86,101.48l-23.66-113.16L358.79,128.48l-5.43,143.37h-.01Z"/><path class="cls-1" d="M246.47,384.76c-48.75,30.19-117.25,72.7-146.4,90.79-6.82,4.23-8.92,13.2-4.69,20.03,2.75,4.44,7.51,6.88,12.37,6.88,2.62,0,5.27-.71,7.66-2.19,29.14-18.08,97.64-60.58,146.38-90.78,6.83-4.23,8.93-13.19,4.7-20.02-4.23-6.83-13.19-8.93-20.02-4.7h0Z"/></g></svg>