<svg width="42" height="30" viewBox="0 0 42 30" fill="none" xmlns="http://www.w3.org/2000/svg">
<g clip-path="url(#clip0_316_2530)">
<path d="M41.0639 12.8543L37.8227 6.77602C37.0309 5.29175 35.4763 4.37214 33.7649 4.37214H26.767V0.899435C26.767 0.403334 26.3546 0 25.8474 0H0.919588C0.412371 0 0 0.403334 0 0.899435V24.3937C0 24.8898 0.412371 25.2931 0.919588 25.2931H6.37113C6.34639 25.4746 6.3299 25.6601 6.3299 25.8457C6.3299 28.1326 8.23505 29.996 10.5732 29.996C12.9113 29.996 14.8165 28.1326 14.8165 25.8457C14.8165 25.6601 14.8 25.4746 14.7753 25.2931H27.8969C27.8722 25.4746 27.8557 25.6601 27.8557 25.8457C27.8557 28.1326 29.7608 29.996 32.099 29.996C34.4371 29.996 36.3423 28.1326 36.3423 25.8457C36.3423 25.6601 36.3258 25.4746 36.301 25.2931H38.7299C40.5361 25.2931 42.0041 23.8572 42.0041 22.0906V16.5932C42.0041 15.2944 41.6783 14.0038 41.068 12.8543H41.0639ZM1.8433 1.8029H24.9237V23.4942H1.8433V1.8029ZM12.9732 25.8497C12.9732 27.1444 11.8969 28.1971 10.5732 28.1971C9.24948 28.1971 8.1732 27.1444 8.1732 25.8497C8.1732 25.6601 8.20206 25.4786 8.24742 25.2971H12.9072C12.9526 25.4746 12.9732 25.6601 12.9732 25.8497ZM34.4948 25.8497C34.4948 27.1444 33.4186 28.1971 32.0948 28.1971C30.7711 28.1971 29.6948 27.1444 29.6948 25.8497C29.6948 25.6601 29.7237 25.4786 29.7691 25.2971H34.4289C34.4742 25.4746 34.4948 25.6601 34.4948 25.8497ZM38.7258 23.4942H26.767V6.17505H33.7649C34.7876 6.17505 35.7155 6.72358 36.1856 7.61092L39.4268 13.6892C39.9052 14.5846 40.1567 15.5889 40.1567 16.5972H39.0557C37.8186 16.5972 36.8124 17.5813 36.8124 18.7913V20.5499C36.8124 21.046 37.2247 21.4493 37.732 21.4493H40.1567V22.0906C40.1567 22.861 39.5134 23.4902 38.7258 23.4902V23.4942ZM40.1567 19.6504H38.6515V18.7954C38.6515 18.5776 38.833 18.4041 39.0515 18.4041H40.1526V19.6545L40.1567 19.6504Z" fill="#4D4D4D"/>
<path d="M34.2474 8.7362C34.0866 8.43773 33.7732 8.2522 33.4309 8.2522H29.4185C28.9113 8.2522 28.499 8.65553 28.499 9.15163V14.1409C28.499 14.637 28.9113 15.0403 29.4185 15.0403H34.5526C35.2082 15.0403 35.8021 14.7136 36.1402 14.1651C36.4783 13.6165 36.5031 12.951 36.1979 12.3823L34.2474 8.72813V8.7362ZM34.5484 13.2414H30.334V10.0511H32.866L34.5526 13.2374C34.5526 13.2374 34.5526 13.2374 34.5443 13.2374L34.5484 13.2414Z" fill="#4D4D4D"/>
<path d="M21.868 19.3923H4.89897C4.39176 19.3923 3.97939 19.7957 3.97939 20.2918C3.97939 20.7879 4.39176 21.1912 4.89897 21.1912H21.868C22.3753 21.1912 22.7876 20.7879 22.7876 20.2918C22.7876 19.7957 22.3753 19.3923 21.868 19.3923Z" fill="#4D4D4D"/>
</g>
<defs>
<clipPath id="clip0_316_2530">
<rect width="42" height="30" fill="white"/>
</clipPath>
</defs>
</svg>
