<?xml version="1.0" encoding="UTF-8"?><svg id="Layer_2" xmlns="http://www.w3.org/2000/svg" viewBox="0 0 548.99 615.52"><defs><style>.cls-1{fill:#4D4D4D;}</style></defs><g id="Layer_1-2"><g><path class="cls-1" d="M458.88,615.52h-194.38c-4.57,0-8.88-2.15-11.62-5.8-2.75-3.65-3.62-8.38-2.35-12.77,5.12-17.76,50.95-174.52,80.88-208.04,16.54-18.52,52.62-30.32,107.26-35.05,26.99-2.31,52.63,12.61,63.83,37.19l42.95,94.2c4.78,10.49,4.73,22.48-.14,32.89-15.18,32.45-46.14,88.21-83.05,97-1.1,.26-2.23,.39-3.37,.39Zm-174.93-29.09h172.99c17.6-5.5,41.19-36.1,62.01-80.63,1.25-2.68,1.26-5.78,.02-8.51l-42.95-94.2c-6.11-13.4-20.15-21.58-34.85-20.27-45.02,3.9-77.12,13.18-88.08,25.45-17.65,19.76-49.05,111.23-69.15,178.15Z"/><path class="cls-1" d="M282.91,119.14c-4.28,0-8.51-1.88-11.39-5.48-5-6.28-3.97-15.43,2.31-20.44l65.44-52.13V14.54c0-8.03,6.51-14.54,14.54-14.54s14.54,6.51,14.54,14.54V48.1c0,4.43-2.02,8.62-5.48,11.38l-70.92,56.49c-2.68,2.13-5.88,3.17-9.05,3.17Z"/><path class="cls-1" d="M382.93,392.31c-6.34,0-12.17-4.18-13.99-10.59L288.15,95.94c-2.18-7.73,2.31-15.76,10.04-17.95,7.72-2.18,15.76,2.31,17.95,10.04l80.79,285.78c2.18,7.73-2.31,15.76-10.04,17.95-1.32,.37-2.65,.55-3.96,.55Z"/><path class="cls-1" d="M184.75,571.93c-.11,0-.23,0-.34,0H26.5c-5.74,0-10.95-3.38-13.29-8.63l-11.96-26.88c-2-4.5-1.59-9.7,1.09-13.83,2.68-4.13,7.27-6.62,12.2-6.62H57.69c.64-7.44,6.88-13.28,14.49-13.28h97.65c6.08,0,11.51,3.78,13.63,9.48l11.4,30.68h226.89l11.58-28.22c5.64-13.74,6.52-29.19,2.48-43.48l-80.8-285.81c-.99-3.5-4.23-5.96-7.88-5.96h-72.71c-19.03,0-36.71-9.45-47.28-25.28-10.57-15.83-12.53-35.78-5.23-53.37L254.55,22.06c3.08-7.41,11.59-10.94,19.01-7.86,7.42,3.08,10.94,11.59,7.86,19.01l-32.64,78.66c-3.61,8.72-2.68,18.22,2.56,26.07,5.24,7.85,13.66,12.35,23.1,12.35h72.71c16.6,0,31.34,11.16,35.86,27.13l80.8,285.81c5.8,20.53,4.53,42.71-3.56,62.44l-15.28,37.24c-2.24,5.46-7.55,9.02-13.45,9.02H185.09c-.11,0-.22,0-.33,0Zm-104.88-29.09h83.95l-4.12-11.07H86.67c-.4,4.67-3.02,8.71-6.79,11.07Z"/><path class="cls-1" d="M72.18,571.92c-8.03,0-14.54-6.51-14.54-14.54v-26.88c0-8.03,6.51-14.54,14.54-14.54s14.54,6.51,14.54,14.54v26.88c0,8.03-6.51,14.54-14.54,14.54Z"/><path class="cls-1" d="M264.5,615.52h-94.59c-8.03,0-14.54-6.51-14.54-14.54s6.51-14.54,14.54-14.54h94.59c8.03,0,14.54,6.51,14.54,14.54s-6.51,14.54-14.54,14.54Z"/><path class="cls-1" d="M342.54,528.35c-1.73,0-3.48-.31-5.19-.96-7.5-2.87-11.26-11.27-8.39-18.78l31.59-82.66c2.86-7.5,11.28-11.26,18.78-8.39,7.5,2.87,11.26,11.27,8.39,18.78l-31.59,82.66c-2.21,5.79-7.73,9.36-13.59,9.36Z"/></g></g></svg>