<?xml version="1.0" encoding="utf-8"?>
<!-- Generator: Adobe Illustrator 26.5.0, SVG Export Plug-In . SVG Version: 6.00 Build 0)  -->
<svg version="1.1" id="Layer_1" xmlns="http://www.w3.org/2000/svg" xmlns:xlink="http://www.w3.org/1999/xlink" x="0px" y="0px"
	 viewBox="0 0 41 30" style="enable-background:new 0 0 41 30;" xml:space="preserve">
<style type="text/css">
	.st0{clip-path:url(#SVGID_00000097467985017856895610000013203417170416575401_);}
	.st1{fill:#4D4D4D;}
</style>
<g>
	<defs>
		<rect id="SVGID_1_" width="41" height="29.1"/>
	</defs>
	<clipPath id="SVGID_00000150810312431122864700000001333259824055274926_">
		<use xlink:href="#SVGID_1_"  style="overflow:visible;"/>
	</clipPath>
	<g style="clip-path:url(#SVGID_00000150810312431122864700000001333259824055274926_);">
		<g>
			<path class="st1" d="M33.2,29.3H5.6c-2,0-3.7-1.5-3.7-3.4V8.3c0-1.9,1.6-3.4,3.7-3.4h27.6c2,0,3.7,1.5,3.7,3.4v3.8
				c0,0.6-0.4,1-0.9,1s-0.9-0.4-0.9-1V8.3c0-0.7-0.8-1.4-1.8-1.4H5.6c-1,0-1.8,0.6-1.8,1.4v17.6c0,0.7,0.8,1.4,1.8,1.4h27.6
				c1,0,1.8-0.6,1.8-1.4V21c0-0.6,0.4-1,0.9-1s0.9,0.4,0.9,1v4.9C36.8,27.8,35.2,29.3,33.2,29.3z"/>
		</g>
		<g>
			<path class="st1" d="M36.2,22h-7.5c-1.6,0-2.9-1.3-2.9-2.9v-5.1c0-1.6,1.3-2.9,2.9-2.9h7.5c1.6,0,2.9,1.3,2.9,2.9v5.1
				C39.1,20.8,37.8,22,36.2,22z M28.7,13.2c-0.6,0-1.1,0.4-1.1,0.9v5.1c0,0.5,0.5,0.9,1.1,0.9h7.5c0.6,0,1.1-0.4,1.1-0.9v-5.1
				c0-0.5-0.5-0.9-1.1-0.9H28.7z"/>
		</g>
		<g>
			<path class="st1" d="M31.2,18c0.8,0,1.4-0.5,1.4-1.2s-0.6-1.2-1.4-1.2c-0.8,0-1.4,0.5-1.4,1.2S30.4,18,31.2,18z"/>
		</g>
		<g>
			<path class="st1" d="M16.7,6.9c-0.4,0-0.7-0.2-0.8-0.6c-0.2-0.5,0-1.1,0.5-1.3l11.8-5.2c0.4-0.2,0.9,0,1.1,0.4l3,5.2
				c0.3,0.5,0.1,1.1-0.3,1.4c-0.4,0.3-1,0.2-1.2-0.3L28.1,2L17,6.9C16.9,6.9,16.8,6.9,16.7,6.9z"/>
		</g>
		<g>
			<path class="st1" d="M8.2,6.9c-0.4,0-0.7-0.2-0.8-0.6C7.2,5.8,7.4,5.2,7.9,5l12.2-5.2c0.4-0.2,0.8,0,1.1,0.4l1.6,2.6
				c0.3,0.5,0.2,1.1-0.2,1.4c-0.4,0.3-1,0.2-1.3-0.3L20.1,2L8.5,6.9C8.4,6.9,8.3,6.9,8.2,6.9z"/>
		</g>
	</g>
</g>
</svg>
