<?xml version="1.0" encoding="UTF-8"?><svg id="Layer_2" xmlns="http://www.w3.org/2000/svg" viewBox="0 0 845.14 798.64"><defs><style>.cls-1{fill:#4D4D4D;}</style></defs><g id="Layer_1-2"><g id="Layer_2-2"><g><path class="cls-1" d="M440.27,585.43l-52.32-18.24,4.57-13.12c4.04-11.59-2.08-24.25-13.67-28.29-11.56-4.01-24.25,2.08-28.29,13.67l-23.77,68.2c-4.04,11.59,2.08,24.25,13.67,28.29,2.42,.84,4.88,1.24,7.31,1.24,9.19,0,17.78-5.74,20.98-14.91l4.57-13.12,52.32,18.24c2.42,.84,4.88,1.24,7.31,1.24,9.19,0,17.78-5.74,20.98-14.91,4.04-11.58-2.08-24.24-13.66-28.29Z"/><path class="cls-1" d="M831.69,1.82c-11.28-4.86-24.33,.36-29.18,11.64l-46.9,109.03h-192.08c-12.27,0-22.22,9.95-22.22,22.22s9.95,22.22,22.22,22.22h103.91l-31.75,73.82h-21.31c-8.87,0-16.9,5.28-20.41,13.44l-89.77,208.69c-9.22-4.21-18.99-7.55-29.24-9.89h-.01c-10.76-2.45-22.06-3.69-33.59-3.69v.04c-.42-.02-.86-.02-1.22-.02-6.62,.05-13.03,.63-19.3,1.47l-48.07-108.96c-3.56-8.06-11.53-13.25-20.33-13.25h-13.54l-8.93-32.38,63.77-3.31c22.11-1.14,40.28-17.91,43.22-39.85,3.19-23.86-12.12-45.79-35.59-51.02l-147.28-32.83c-22.26-6-45.9,2.61-59.08,21.52-14.24,20.39-12.92,47.86,3.2,66.79l13.94,16.38c13.88,16.31,34.23,25.57,54.73,25.57,2.13,0,4.25-.1,6.37-.3l11.29-.59,8.28,30.02h-19.24c-7.51,0-14.52,3.79-18.62,10.08-4.1,6.29-4.74,14.23-1.71,21.11l9.31,21.1c3.99,9.04,2.37,19.15-3.18,26.6-27.49-20.71-61.43-32.59-97.44-32.59C72.65,374.88,0,447.52,0,536.81s72.64,161.93,161.94,161.93c35.11,0,68.83-11.34,96.67-32.11l105.58,63.94c2.49,1.47,5.05,2.79,7.6,4.12l5.68,19.51H156.44c-12.27,0-22.22,9.95-22.22,22.22s9.95,22.22,22.22,22.22h501.39c12.27,0,22.22-9.95,22.22-22.22s-9.95-22.22-22.22-22.22h-141.24l12.23-30.53c29.3-20.78,51.44-51.89,60.02-89.58,5.45-23.95,4.73-47.85-.89-70.18l125.67-292.16c2.96-6.86,2.26-14.75-1.84-21-4.11-6.24-11.09-10-18.56-10h-9.18l31.75-73.82h54.45c8.87,0,16.9-5.28,20.41-13.44l52.67-122.47c4.85-11.29-.35-24.35-11.63-29.2ZM270.01,254.82c-8.95,.85-18.08-2.79-24.02-9.76t-.01-.01l-13.95-16.38c-3.03-3.56-3.27-8.72-.59-12.56,1.95-2.8,5.12-4.39,8.42-4.39,.93,0,1.88,.12,2.8,.39,.4,.11,.81,.22,1.22,.31l147.82,32.95c.8,.18,1.32,.93,1.22,1.76-.1,.75-.72,1.32-1.48,1.37l-121.43,6.32Zm104.27,200.51l-68.88,6.37c-4.23-8.09-9.13-15.68-14.55-22.82,15.73-17.64,22.27-42.42,15.94-65.88h15.15s.02,.01,.03,.01,.03-.01,.04-.01h15.94l36.33,82.33Zm-212.35,198.96c-64.79,0-117.5-52.71-117.5-117.49s52.71-117.5,117.5-117.5c31.06,0,59.99,12.19,81.45,32.85,.1,.09,.19,.18,.28,.27,4.41,4.27,8.5,8.89,12.22,13.86l-95.09,8.79c-33.52,.61-60.61,28.07-60.61,61.73,0,17.21,7.38,33.81,20.25,45.54v-.02c.4,.37,.8,.73,1.21,1.07,4.97,4.3,10.48,7.74,16.41,10.23l78.15,47.33c-16.6,8.66-35.14,13.34-54.27,13.34Zm383.59-30.09c-13.08,57.43-70.4,93.51-127.88,80.45-10.82-2.47-21.18-6.61-30.6-12.2l-227.5-137.78c-1.17-.71-2.4-1.3-3.67-1.78-1.88-.71-3.65-1.78-5.26-3.21-.15-.12-.3-.25-.47-.39-2.17-2.04-5.52-6.22-5.52-12.48,0-9.55,7.77-17.31,17.31-17.31,.68,0,1.37-.03,2.04-.09l255.73-23.63c.69-.07,1.38-.16,2.05-.29,5.91-1.11,12.25-1.69,18.85-1.73,.17,0,.29,.02,.72-.02,8.22,.01,16.21,.87,23.75,2.59,37.11,8.45,65.2,35.43,76.98,68.92,.29,3.07,1.19,6.02,2.68,8.7,4.14,15.95,4.7,33.08,.79,50.25Zm17.11-113.85c-6.11-8.23-13.01-15.89-20.7-22.77l87.06-202.41h21.25s.04,.01,.05,.01,.02-.01,.04-.01h9.15l-96.85,225.18Z"/></g></g></g></svg>