<?xml version="1.0" encoding="utf-8"?>
<!-- Generator: Adobe Illustrator 26.5.0, SVG Export Plug-In . SVG Version: 6.00 Build 0)  -->
<svg version="1.1" id="Layer_2_00000152234602834766933280000011080728873447174817_"
	 xmlns="http://www.w3.org/2000/svg" xmlns:xlink="http://www.w3.org/1999/xlink" x="0px" y="0px" viewBox="0 0 851.7 774.9"
	 style="enable-background:new 0 0 851.7 774.9;" xml:space="preserve">
<style type="text/css">
	.st0{fill:#4D4D4D;}
</style>
<g id="Layer_1-2">
	<g>
		<path class="st0" d="M851.7,236.8c0-7-3.3-13.2-8.4-17.2c-1.1-1.6-2.3-3.2-3.7-4.7L736.2,97.3c-4.1-4.7-10.1-7.4-16.4-7.4h-50.5
			V21.8c0-12-9.8-21.8-21.8-21.8H204.1c-12,0-21.8,9.8-21.8,21.8v68.1h-50.5c-6.3,0-12.2,2.7-16.4,7.4L12,214.9
			c-7.8,8.8-12,20.2-12,31.9v60.5c0,36.9,19.8,69.9,50.4,90.3v355.5c0,12,9.8,21.8,21.8,21.8h160.4c12,0,21.8-9.8,21.8-21.8V509.5
			h141.1V753c0,12,9.8,21.8,21.8,21.8h362.1c12,0,21.8-9.8,21.8-21.8V397.6c30.6-20.4,50.4-53.4,50.4-90.3v-60.5c0-2-0.1-4-0.4-6
			C851.5,239.5,851.7,238.2,851.7,236.8L851.7,236.8z M225.9,43.6h399.8v46.3H225.9V43.6z M757.6,731.3H439.1V487.7
			c0-12-9.8-21.8-21.8-21.8H232.6c-12,0-21.8,9.8-21.8,21.8v243.5H94V416c6.7,1.5,13.7,2.4,20.8,2.8c44.4,2.5,85.2-15.7,109.1-46.5
			c22.5,28.6,60,46.7,100.9,46.7s78.5-18.2,101-46.9c22.5,28.7,60,46.9,101,46.9s78.4-18.1,100.9-46.7c23.9,30.8,64.5,49,109.1,46.5
			c7.1-0.4,14.1-1.4,20.8-2.8V731.3z M734.4,375.2c-37.8,2.2-72.5-18.3-82.1-48.5c-3.4-10.5-13.2-17.6-24.4-17.6s-21,7.1-24.4,17.6
			c-9.2,28.7-40.7,48.7-76.7,48.7s-67.5-20-76.6-48.6c-3.4-10.5-13.2-17.6-24.4-17.6s-21,7.1-24.4,17.6
			c-9.1,28.6-40.7,48.6-76.6,48.6s-67.5-20-76.6-48.6c-3.4-10.5-13.2-17.6-24.4-17.6s-21,7.1-24.4,17.6
			c-9.6,30.2-44.1,50.6-82.1,48.5C76,373,43.6,343.2,43.6,307.4v-60.5c0-1.1,0.4-2.2,1.2-3.1l96.9-110.2h568.2l71.7,81.5H214.9
			c-12,0-21.8,9.8-21.8,21.8s9.8,21.8,21.8,21.8H808v48.7C808.1,343.1,775.7,372.9,734.4,375.2L734.4,375.2z"/>
		<path class="st0" d="M638,524H528c-12,0-21.8,9.8-21.8,21.8v110c0,12,9.8,21.8,21.8,21.8h110c12,0,21.8-9.8,21.8-21.8v-110
			C659.8,533.7,650,524,638,524z M616.2,633.9h-66.4v-66.4h66.4V633.9z"/>
	</g>
</g>
</svg>
