<?xml version="1.0" encoding="UTF-8"?><svg id="Layer_2" xmlns="http://www.w3.org/2000/svg" viewBox="0 0 18.49 9.5"><defs><style>.cls-1{fill:#4D4D4D;}</style></defs><g id="Layer_1-2"><g><path class="cls-1" d="M3.98,5.9c-.36,0-.72-.16-.97-.45l-.25-.3c-.28-.33-.31-.81-.06-1.17,.23-.33,.65-.48,1.04-.38l2.68,.6c.41,.09,.67,.47,.62,.89-.05,.38-.37,.67-.75,.69l-2.19,.11s-.08,0-.11,0Zm-.49-1.59c-.07,0-.14,.03-.18,.1-.06,.08-.05,.19,.01,.27l.25,.3h0c.12,.14,.29,.21,.47,.19l2.2-.11s.06-.03,.06-.06c0-.03-.02-.06-.05-.07l-2.68-.6s-.01,0-.02,0c-.02,0-.04,0-.06,0Z"/><path class="cls-1" d="M13.23,4.01c-.11,0-.22-.05-.29-.14-.13-.16-.1-.39,.06-.52l2.44-1.94V.37c0-.2,.16-.37,.37-.37s.37,.16,.37,.37V1.59c0,.11-.05,.22-.14,.29l-2.58,2.05c-.07,.05-.15,.08-.23,.08Z"/><path class="cls-1" d="M17.53,9.5h-.53c-.19,0-.34-.14-.36-.32l-.52-4.28-4.84,3.82c-.61,.48-1.4,.69-2.16,.57l-7.9-1.24c-.7-.11-1.2-.7-1.2-1.41v-.66c0-.37,.3-.68,.68-.68h.88c.2,0,.37,.16,.37,.37v.53l7.43,1.16c.26,.04,.54-.03,.75-.2L15.29,3.09h0c.48-.38,1.1-.46,1.66-.23,.56,.23,.94,.73,1.01,1.33l.52,4.24c.03,.27-.05,.55-.23,.75-.18,.21-.44,.32-.72,.32Zm-.21-.74h.21c.09,0,.14-.05,.17-.08,.03-.03,.07-.09,.05-.18l-.52-4.24c-.04-.34-.25-.61-.56-.74-.31-.13-.66-.08-.92,.13l-5.19,4.09c-.37,.29-.85,.42-1.31,.34L1.51,6.89c-.18-.03-.31-.18-.31-.36v-.48h-.46v.6c0,.34,.24,.63,.58,.68l7.9,1.24c.57,.09,1.15-.06,1.6-.42l5.05-3.98c.17-.13,.39-.16,.58-.08,.19,.08,.33,.26,.36,.47l.52,4.22Z"/><path class="cls-1" d="M15.65,8.17s-.07,0-.11,0l-3.26-.35c-.2-.02-.35-.2-.33-.4s.2-.35,.4-.33l3.25,.35c.26,.02,.5-.16,.55-.43,.04-.25-.11-.5-.35-.58l-1.29-.42c-.19-.06-.3-.27-.23-.46,.06-.19,.27-.3,.46-.23l1.29,.42c.59,.19,.95,.8,.85,1.41-.1,.61-.63,1.04-1.24,1.04Z"/><path class="cls-1" d="M16.47,5.6s-.1,0-.14-.03c-.33-.14-.71-.15-1.05-.04-.19,.06-.4-.04-.47-.23-.07-.19,.04-.4,.23-.47,.51-.17,1.08-.15,1.58,.06,.19,.08,.27,.29,.2,.48-.06,.14-.2,.22-.34,.22Z"/><path class="cls-1" d="M15.75,9.16c-.89,0-1.7-.53-2.04-1.36-.08-.19,0-.4,.2-.48,.19-.08,.4,0,.48,.2,.23,.55,.77,.91,1.37,.91,.34,0,.66-.11,.93-.32,.16-.13,.39-.1,.52,.06,.13,.16,.1,.39-.06,.52-.39,.31-.88,.49-1.38,.49Z"/><path class="cls-1" d="M12.6,6.05H1.56c-.2,0-.37-.16-.37-.37s.16-.37,.37-.37H12.6c.2,0,.37,.16,.37,.37,0,.2-.16,.37-.37,.37Z"/><path class="cls-1" d="M1.26,9.5c-.08,0-.15-.02-.22-.07-.16-.12-.19-.35-.07-.51l.91-1.21c.12-.16,.35-.19,.51-.07,.16,.12,.19,.35,.07,.51l-.91,1.21c-.07,.1-.18,.15-.29,.15Z"/><path class="cls-1" d="M15.81,3.58c-.11,0-.23-.05-.3-.15l-.75-1.03c-.12-.16-.08-.39,.08-.51,.16-.12,.39-.08,.51,.08l.75,1.03c.12,.16,.08,.39-.08,.51-.07,.05-.14,.07-.22,.07Z"/></g></g></svg>