<?xml version="1.0" encoding="UTF-8"?><svg id="Layer_2" xmlns="http://www.w3.org/2000/svg" viewBox="0 0 14.06 12.65"><defs><style>.cls-1{fill:#4D4D4D;}</style></defs><g id="Layer_1-2"><g><path class="cls-1" d="M14.05,11.95l-.27-1.27c-.08-.39-.39-.68-.77-.76l-1.44-7.2,.54-.43c.08-.06,.12-.15,.12-.25V.32c0-.18-.14-.32-.32-.32s-.32,.14-.32,.32V1.88l-1.98,1.58-3.3,.48c-.2,.03-.37,.14-.48,.31-.11,.17-.14,.38-.08,.57l.16,.54c.04,.14,.16,.23,.3,.23l3.47,.06c.07,0,.14,.05,.15,.13l.82,4.11H.93c-.35,.01-.63,.15-.8,.41-.15,.24-.18,.55-.06,.8l.48,1.1c.12,.27,.39,.45,.69,.45H13.47c.18,0,.34-.08,.45-.22,.11-.14,.15-.32,.12-.49h0Zm-4.36-6.93l-3.23-.06-.09-.32s0-.03,0-.04c0,0,.02-.02,.04-.02l3.39-.49s.02,0,.04-.01c.01,0,.02,0,.03,0,.03-.01,.06-.03,.09-.05l1.06-.85,1.34,6.72h-1.06s-.85-4.23-.85-4.23c-.07-.37-.4-.64-.77-.64h0ZM1.24,12.01s-.08-.03-.1-.07l-.48-1.1s-.02-.13,.02-.19c.05-.08,.17-.1,.26-.1H12.82s0-.01,0-.01c.16,0,.3,.11,.33,.27l.25,1.2H1.24Z"/><path class="cls-1" d="M11.1,10.85H2.24c-.17,0-.31,.14-.31,.31s.14,.31,.31,.31H11.1c.17,0,.31-.14,.31-.31s-.14-.31-.31-.31Z"/></g></g></svg>